PathFileType	4	(X/Y/Z)	C:/Users/opensim2020/Desktop/walking_exp_matlab/subject06_walking18_straight_03.trc	
DataRate	CameraRate	NumFrames	NumMarkers	Units	OrigDataRate	OrigDataStartFrame	OrigNumFrames	
100.00	100.00	6	47	mm	100.00	3392	309	
Frame#	Time	LFHD			RFHD			LBHD			RBHD			C7			T10			CLAV			STRN			RBAK			LSHO			LUPA			LELB			LFRM			LWRA			LWRB			LFIN			RSHO			RUPA			RELB			RFRM			RWRA			RWRB			RFIN			LASI			RASI			LPSI			RPSI			LTHI			LKNE			LTIB			LANK			LHEE			LTOE			RTHI			RKNE			RTIB			RANK			RHEE			RTOE			*39			*40			*41			*42			*43			*44			*45			*46			
		X1	Y1	Z1	X2	Y2	Z2	X3	Y3	Z3	X4	Y4	Z4	X5	Y5	Z5	X6	Y6	Z6	X7	Y7	Z7	X8	Y8	Z8	X9	Y9	Z9	X10	Y10	Z10	X11	Y11	Z11	X12	Y12	Z12	X13	Y13	Z13	X14	Y14	Z14	X15	Y15	Z15	X16	Y16	Z16	X17	Y17	Z17	X18	Y18	Z18	X19	Y19	Z19	X20	Y20	Z20	X21	Y21	Z21	X22	Y22	Z22	X23	Y23	Z23	X24	Y24	Z24	X25	Y25	Z25	X26	Y26	Z26	X27	Y27	Z27	X28	Y28	Z28	X29	Y29	Z29	X30	Y30	Z30	X31	Y31	Z31	X32	Y32	Z32	X33	Y33	Z33	X34	Y34	Z34	X35	Y35	Z35	X36	Y36	Z36	X37	Y37	Z37	X38	Y38	Z38	X39	Y39	Z39	X40	Y40	Z40	X41	Y41	Z41	X42	Y42	Z42	X43	Y43	Z43	X44	Y44	Z44	X45	Y45	Z45	X46	Y46	Z46	X47	Y47	Z47	

78	0.770	1417.85864	-265.62753	1677.34680	1548.62268	-261.69153	1662.23022	1419.06506	-397.03983	1618.94165	1548.24329	-391.91101	1608.97864	1471.36719	-392.95551	1463.26477	1474.43018	-436.39523	1135.89734	1468.58105	-283.18753	1385.25708	1460.15857	-247.20828	1210.60718	1552.30078	-466.04242	1294.67688	1307.40991	-340.60321	1419.72827	1230.17542	-363.76672	1220.42542	1215.72986	-377.96240	1109.78357	1185.42871	-364.04709	961.54645	1217.30261	-307.68640	841.78979	1183.24158	-370.15781	842.43219	1175.28992	-333.40796	759.57361	1629.95300	-322.46313	1414.88635	1718.58569	-351.51190	1215.04431	1727.85071	-336.94058	1093.53882	1739.26624	-308.03796	976.51813	1697.23267	-234.59470	847.20685	1741.36841	-284.05191	841.10449	1738.29346	-237.83287	770.70740	1360.97107	-259.76978	979.84680	1581.62256	-259.60135	977.16443	1387.00757	-419.49435	1001.87677	1555.70471	-412.34146	1003.21857	1289.65869	-279.29736	664.74292	1312.00439	-241.84526	504.68817	1313.13684	-302.52756	258.40753	1346.10022	-319.77142	85.51957	1396.42590	-354.63141	69.41630	1331.59863	-181.36948	51.06508	1623.18250	-325.30490	640.43341	1597.83337	-329.32187	514.78131	1590.76758	-404.81143	256.81076	1539.18994	-440.75061	74.36845	1494.92383	-483.14706	51.70947	1537.98242	-288.57092	37.36198	1480.82666	-365.52002	1710.61011																					 
79	0.780	1417.30994	-259.72595	1676.75061	1548.06934	-255.73546	1661.78613	1418.69836	-391.21042	1618.54199	1547.87109	-385.99203	1608.79175	1471.38611	-387.61145	1462.88965	1474.91724	-430.67438	1135.43347	1468.36060	-277.48633	1384.78638	1460.13159	-241.52359	1210.12512	1552.49658	-460.29865	1294.31702	1307.27332	-335.32077	1419.23401	1230.05066	-359.56360	1220.11694	1215.72083	-374.47247	1109.56885	1185.62769	-361.73163	961.16406	1217.31335	-306.12704	841.18738	1183.61707	-369.09357	842.11688	1175.51685	-332.80267	758.98346	1629.72375	-316.67709	1414.56934	1718.57288	-345.17633	1214.87561	1728.01306	-330.21741	1093.38562	1739.31470	-300.59711	976.57880	1696.87183	-226.39357	847.79956	1741.20654	-275.63562	841.33990	1738.00330	-228.71356	771.21075	1361.16296	-254.22681	979.52985	1581.91394	-253.89554	976.56946	1387.27869	-413.92737	1001.49878	1555.91895	-406.24265	1002.72858	1289.46277	-273.40952	664.66309	1311.90735	-234.32588	504.97995	1313.07007	-287.07587	256.80167	1346.46008	-297.73883	83.33138	1396.38672	-333.03726	66.91097	1332.88989	-158.97383	51.80928	1622.70435	-320.80511	639.74603	1597.76392	-325.84036	514.14862	1590.50732	-403.11719	256.67279	1539.05908	-440.54248	74.45831	1494.79517	-483.12796	51.94125	1538.02063	-288.53143	37.32256	1480.29358	-359.48730	1710.27295																					 
80	0.790	1416.68579	-253.73511	1676.18164	1547.43140	-249.76059	1661.34180	1418.28662	-385.39084	1618.19238	1547.42822	-380.07993	1608.56555	1471.12341	-381.89539	1462.37183	1475.30054	-424.67667	1134.85144	1468.02856	-271.77658	1384.35168	1459.99487	-235.75357	1209.65369	1552.49097	-454.26636	1293.78589	1307.06128	-330.09113	1418.67310	1230.36426	-355.01563	1219.59302	1215.84985	-370.87860	1109.28406	1185.86121	-359.10098	960.70184	1217.47583	-304.33032	840.52356	1184.08203	-367.37122	841.73828	1175.99121	-331.93262	758.33783	1629.44263	-310.85782	1414.28845	1718.57886	-338.85910	1214.64758	1728.12073	-323.52896	1093.20642	1739.30640	-292.99023	976.56232	1696.49353	-218.26025	848.36401	1740.99927	-267.37384	841.64014	1737.42004	-220.11124	771.78009	1361.22839	-248.55350	979.13684	1582.04150	-248.00443	975.86493	1387.67969	-408.31689	1001.10223	1556.34497	-400.65591	1002.29266	1289.17444	-267.39572	664.50354	1311.75305	-226.97676	505.30945	1312.97070	-271.64786	255.42964	1346.19055	-276.26410	81.66584	1396.05823	-311.33014	64.65121	1334.15503	-136.27242	52.48220	1622.55347	-316.25262	639.07037	1597.80688	-322.37006	513.49048	1590.26917	-401.53015	256.54068	1538.95850	-440.34061	74.56228	1494.66089	-483.04678	52.12133	1538.03223	-288.43732	37.27849	1479.68433	-353.42090	1709.88086																					 
81	0.800	1416.00806	-247.77756	1675.54053	1546.79443	-243.73482	1660.88318	1417.72803	-379.43283	1617.80371	1546.95911	-374.12009	1608.30969	1470.83630	-375.97769	1461.81152	1475.70081	-418.80862	1134.33508	1467.62305	-265.99512	1383.83008	1459.74463	-229.93909	1209.12646	1552.52026	-448.47726	1293.20544	1306.75452	-324.65414	1418.09045	1229.83337	-350.79205	1219.31763	1215.84631	-366.97202	1108.96167	1186.13257	-356.24902	960.23199	1217.67444	-301.72815	839.86859	1184.59949	-365.57840	841.31232	1176.68616	-330.65179	757.65234	1629.05835	-305.02887	1413.96631	1718.53223	-332.54297	1214.43140	1728.05847	-316.78918	1093.03088	1739.10657	-285.83139	976.53723	1696.02075	-210.17702	848.87946	1740.65417	-259.09720	841.70679	1736.98633	-211.43466	772.24902	1361.16357	-242.77440	978.63538	1582.04102	-242.11723	975.13062	1388.05725	-402.94537	1000.89990	1556.62671	-394.33878	1001.80170	1289.03186	-261.75452	664.31561	1311.58594	-219.85152	505.63138	1312.71167	-256.16507	254.34741	1345.82910	-255.02380	80.47448	1395.59314	-290.18362	62.96789	1335.36743	-113.81429	53.80907	1622.59448	-311.98013	638.46777	1597.90063	-318.85382	512.80475	1590.10913	-399.85303	256.40970	1538.89001	-440.09738	74.71072	1494.64368	-483.00031	52.41478	1537.98474	-288.39960	37.10006	1479.04175	-347.31982	1709.53870																					 
82	0.810	1415.29248	-241.72011	1674.93311	1546.05994	-237.64586	1660.36072	1417.19739	-373.57401	1617.34644	1546.37964	-368.11743	1608.04749	1470.36206	-369.95020	1461.17078	1475.93530	-412.71979	1133.71594	1467.14868	-260.22363	1383.31287	1459.43152	-224.04398	1208.58044	1552.34277	-442.27472	1292.56616	1306.38782	-319.20978	1417.50635	1229.66772	-346.21640	1218.90881	1215.99817	-362.90958	1108.56531	1186.55127	-353.16476	959.73950	1218.77002	-300.47882	838.85071	1185.24377	-363.26685	840.84180	1177.51355	-329.05927	756.92462	1628.64124	-299.15765	1413.64197	1718.32288	-326.17624	1214.15198	1727.95776	-310.12219	1092.79993	1739.01355	-278.33112	976.53888	1695.54797	-202.22708	849.38971	1740.27942	-250.93123	841.84631	1736.58643	-202.65288	772.76428	1361.23132	-237.06770	978.04761	1581.97742	-236.22289	974.34344	1388.46423	-397.07156	1000.45142	1557.04053	-388.55582	1001.33923	1288.94739	-256.10651	664.06793	1311.45898	-212.69342	505.93906	1312.39697	-241.17162	253.49239	1345.53979	-234.40486	79.64783	1395.06067	-269.59995	61.78546	1336.65417	-91.95946	55.83084	1622.29431	-307.31839	637.73822	1597.87756	-315.17755	512.16687	1589.92004	-398.01263	256.35800	1538.84387	-439.73871	74.80233	1494.72095	-483.20163	52.94567	1537.88098	-288.13107	37.06070	1478.38879	-341.24310	1709.18469																					 
83	0.820	1414.45618	-235.75371	1674.24561	1545.34412	-231.55124	1659.85437	1416.56824	-367.63950	1616.88928	1545.76660	-362.09393	1607.73938	1469.97107	-364.13489	1460.56091	1476.17188	-406.89240	1133.18323	1466.66516	-254.38004	1382.73071	1459.06836	-218.10001	1208.02795	1552.21716	-436.24744	1291.88306	1305.95996	-313.68079	1416.89539	1229.56287	-341.52216	1218.45630	1216.06335	-358.72290	1108.17358	1186.95483	-349.79263	959.11523	1219.33533	-297.68188	838.17401	1185.77234	-360.51147	840.29761	1178.79370	-326.64957	756.01422	1628.17249	-293.19540	1413.27344	1718.00732	-319.89163	1213.86914	1727.73010	-303.46509	1092.54395	1738.55542	-271.22723	976.48029	1695.04553	-194.35904	849.80902	1739.83081	-242.95645	841.94928	1735.87476	-194.22165	773.08203	1361.26086	-231.27206	977.42090	1581.93811	-230.37634	973.54315	1388.63074	-391.45865	999.97510	1557.19263	-382.36475	1000.83032	1288.79993	-250.45427	663.76752	1311.36133	-205.67180	506.11758	1312.08813	-226.49936	252.80341	1345.16138	-213.86520	79.13209	1394.25708	-248.44031	60.04046	1338.07349	-70.42715	58.31836	1622.16089	-302.86487	637.00763	1597.79346	-311.29352	511.47803	1589.79895	-395.89148	256.10260	1538.83716	-439.46436	74.97555	1494.71106	-482.83670	53.07292	1537.79309	-288.10651	37.06185	1477.60803	-335.12561	1708.74182																					 
